<svg width="32" height="32" viewBox="0 0 32 32" fill="none" xmlns="http://www.w3.org/2000/svg">
<path d="M14.9285 3.14282H17.0714C17.2619 3.14282 17.3571 3.23806 17.3571 3.42854V14.6428H28.0001C28.1905 14.6428 28.2858 14.7381 28.2858 14.9285V17.0714C28.2858 17.2619 28.1905 17.3571 28.0001 17.3571H17.3571V28.5714C17.3571 28.7619 17.2619 28.8571 17.0714 28.8571H14.9285C14.7381 28.8571 14.6428 28.7619 14.6428 28.5714V17.3571H4.00007C3.80959 17.3571 3.71436 17.2619 3.71436 17.0714V14.9285C3.71436 14.7381 3.80959 14.6428 4.00007 14.6428H14.6428V3.42854C14.6428 3.23806 14.7381 3.14282 14.9285 3.14282Z" fill="black"/>
</svg>
