<svg width="1920" height="1079" viewBox="0 0 1920 1079" fill="none" xmlns="http://www.w3.org/2000/svg">
<path d="M1444 398.859C1437.3 395.091 1434.03 391.503 1430.95 384.504C1427.15 391.145 1423.52 394.377 1416.46 397.429C1423.16 401.197 1426.43 404.786 1429.51 411.784C1429.51 411.784 1436.93 401.912 1444 398.859Z" fill="white"/>
<path d="M1471.7 577.402C1464.99 573.634 1461.73 570.045 1458.65 563.047C1454.84 569.688 1451.22 572.919 1444.15 575.972C1450.86 579.74 1454.12 583.328 1457.2 590.327C1457.2 590.327 1464.63 580.454 1471.7 577.402Z" fill="white"/>
<path d="M82.2661 112.16C75.5605 108.392 72.2979 104.804 69.2158 97.8047C65.4118 104.446 61.7884 107.677 54.7218 110.73C61.4275 114.498 64.6901 118.086 67.7722 125.085C67.7722 125.085 75.1996 115.212 82.2661 112.16Z" fill="white"/>
<path d="M1500.27 171.704C1493.56 167.936 1490.3 164.347 1487.22 157.348C1483.41 163.99 1479.79 167.221 1472.72 170.274C1479.43 174.041 1482.69 177.63 1485.77 184.629C1485.77 184.629 1493.2 174.756 1500.27 171.704Z" fill="white"/>
<path d="M1499.39 755.945C1492.69 752.177 1489.42 748.589 1486.34 741.59C1482.54 748.231 1478.91 751.463 1471.85 754.515C1478.55 758.283 1481.82 761.872 1484.9 768.87C1484.9 768.87 1492.33 758.998 1499.39 755.945Z" fill="white"/>
<path d="M109.961 290.703C103.256 286.936 99.9932 283.347 96.9111 276.348C93.1071 282.989 89.4837 286.221 82.4171 289.273C89.1228 293.041 92.3854 296.63 95.4675 303.629C95.4675 303.629 102.895 293.756 109.961 290.703Z" fill="white"/>
<path d="M1638.51 663.773C1631.81 660.005 1628.54 656.416 1625.46 649.417C1621.66 656.059 1618.04 659.29 1610.97 662.343C1617.67 666.11 1620.94 669.699 1624.02 676.698C1624.02 676.698 1631.45 666.825 1638.51 663.773Z" fill="white"/>
<path d="M249.083 198.531C242.377 194.763 239.114 191.175 236.032 184.176C232.228 190.817 228.605 194.049 221.538 197.101C228.244 200.869 231.506 204.458 234.589 211.456C234.589 211.456 242.016 201.584 249.083 198.531Z" fill="white"/>
<path d="M1667.08 258.075C1660.38 254.307 1657.11 250.718 1654.03 243.719C1650.23 250.361 1646.6 253.592 1639.54 256.645C1646.24 260.412 1649.51 264.001 1652.59 271C1652.59 271 1660.02 261.127 1667.08 258.075Z" fill="white"/>
<path d="M1804.04 355.674C1797.34 351.906 1794.07 348.317 1790.99 341.318C1787.19 347.96 1783.56 351.191 1776.5 354.244C1783.2 358.011 1786.47 361.6 1789.55 368.599C1789.55 368.599 1796.98 358.726 1804.04 355.674Z" fill="white"/>
<path d="M1831.74 642.503C1825.03 638.735 1821.77 635.146 1818.69 628.147C1814.88 634.789 1811.26 638.02 1804.19 641.073C1810.9 644.84 1814.16 648.429 1817.24 655.428C1817.24 655.428 1824.67 645.555 1831.74 642.503Z" fill="white"/>
<path d="M1860.31 236.804C1853.6 233.037 1850.34 229.448 1847.26 222.449C1843.45 229.091 1839.83 232.322 1832.76 235.375C1839.47 239.142 1842.73 242.731 1845.81 249.73C1845.81 249.73 1853.24 239.857 1860.31 236.804Z" fill="white"/>
<path d="M1760.89 876.477C1754.18 872.71 1750.92 869.121 1747.84 862.122C1744.03 868.764 1740.41 871.995 1733.34 875.048C1740.05 878.815 1743.31 882.404 1746.39 889.403C1746.39 889.403 1753.82 879.53 1760.89 876.477Z" fill="white"/>
<path d="M1593.43 966.716C1586.72 962.948 1583.46 959.359 1580.38 952.361C1576.57 959.002 1572.95 962.233 1565.88 965.286C1572.59 969.054 1575.85 972.642 1578.93 979.641C1578.93 979.641 1586.36 969.768 1593.43 966.716Z" fill="white"/>
<path d="M1257.86 795.908C1251.16 792.14 1247.89 788.552 1244.81 781.553C1241.01 788.194 1237.39 791.426 1230.32 794.478C1237.02 798.246 1240.29 801.834 1243.37 808.833C1243.37 808.833 1250.8 798.961 1257.86 795.908Z" fill="white"/>
<path d="M1009.25 757.878C1002.54 754.111 999.28 750.522 996.198 743.523C992.394 750.165 988.77 753.396 981.704 756.449C988.409 760.216 991.672 763.805 994.754 770.804C994.754 770.804 1002.18 760.931 1009.25 757.878Z" fill="white"/>
<path d="M760.633 719.85C753.928 716.082 750.665 712.493 747.583 705.494C743.779 712.136 740.156 715.367 733.089 718.42C739.795 722.187 743.057 725.776 746.139 732.775C746.139 732.775 753.567 722.902 760.633 719.85Z" fill="white"/>
<path d="M512.019 681.821C505.313 678.053 502.051 674.464 498.969 667.466C495.165 674.107 491.541 677.338 484.475 680.391C491.18 684.159 494.443 687.747 497.525 694.746C497.525 694.746 504.953 684.873 512.019 681.821Z" fill="white"/>
<path d="M1232.02 419.578C1225.31 415.81 1222.05 412.222 1218.97 405.223C1215.16 411.864 1211.54 415.095 1204.47 418.148C1211.18 421.916 1214.44 425.504 1217.52 432.503C1217.52 432.503 1224.95 422.63 1232.02 419.578Z" fill="white"/>
<path d="M731.019 265.317C724.313 261.55 721.051 257.961 717.969 250.962C714.165 257.604 710.541 260.835 703.475 263.888C710.18 267.655 713.443 271.244 716.525 278.243C716.525 278.243 723.953 268.37 731.019 265.317Z" fill="white"/>
<path d="M263.404 643.791C256.699 640.024 253.436 636.435 250.354 629.436C246.55 636.077 242.927 639.309 235.86 642.361C242.566 646.129 245.828 649.718 248.91 656.717C248.91 656.717 256.338 646.844 263.404 643.791Z" fill="white"/>
<path d="M983.404 381.549C976.698 377.781 973.436 374.192 970.354 367.193C966.55 373.835 962.926 377.066 955.86 380.119C962.565 383.886 965.828 387.475 968.91 394.474C968.91 394.474 976.338 384.601 983.404 381.549Z" fill="white"/>
<path d="M482.404 227.288C475.699 223.521 472.436 219.932 469.354 212.933C465.55 219.574 461.927 222.806 454.86 225.858C461.566 229.626 464.828 233.215 467.91 240.213C467.91 240.213 475.338 230.341 482.404 227.288Z" fill="white"/>
<path d="M115.266 523.259C108.561 519.491 105.298 515.903 102.216 508.904C98.4118 515.545 94.7884 518.776 87.7218 521.829C94.4275 525.597 97.6901 529.185 100.772 536.184C100.772 536.184 108.2 526.311 115.266 523.259Z" fill="white"/>
<path d="M835.266 261.016C828.56 257.249 825.298 253.66 822.216 246.661C818.412 253.302 814.788 256.534 807.722 259.586C814.427 263.354 817.69 266.943 820.772 273.941C820.772 273.941 828.199 264.069 835.266 261.016Z" fill="white"/>
<path d="M334.266 106.755C327.561 102.988 324.298 99.3991 321.216 92.4003C317.412 99.0417 313.788 102.273 306.722 105.326C313.427 109.093 316.69 112.682 319.772 119.681C319.772 119.681 327.2 109.808 334.266 106.755Z" fill="white"/>
<path d="M248.591 464.604C241.885 460.836 238.623 457.248 235.54 450.249C231.737 456.89 228.113 460.122 221.047 463.174C227.752 466.942 231.015 470.53 234.097 477.529C234.097 477.529 241.524 467.657 248.591 464.604Z" fill="white"/>
<path d="M968.591 202.361C961.885 198.594 958.622 195.005 955.54 188.006C951.736 194.647 948.113 197.879 941.046 200.931C947.752 204.699 951.015 208.288 954.097 215.287C954.097 215.287 961.524 205.414 968.591 202.361Z" fill="white"/>
<path d="M467.591 48.1006C460.885 44.3331 457.623 40.7444 454.54 33.7455C450.737 40.3869 447.113 43.6183 440.047 46.6709C446.752 50.4384 450.015 54.0272 453.097 61.0261C453.097 61.0261 460.524 51.1533 467.591 48.1006Z" fill="white"/>
<path d="M304.626 354.384C297.92 350.617 294.657 347.028 291.575 340.029C287.771 346.67 284.148 349.902 277.081 352.954C283.787 356.722 287.049 360.311 290.132 367.31C290.132 367.31 297.559 357.437 304.626 354.384Z" fill="white"/>
<path d="M1024.63 92.1414C1017.92 88.3739 1014.66 84.7851 1011.57 77.7863C1007.77 84.4277 1004.15 87.6591 997.081 90.7117C1003.79 94.4792 1007.05 98.068 1010.13 105.067C1010.13 105.067 1017.56 95.194 1024.63 92.1414Z" fill="white"/>
<path d="M130.08 847.472C123.374 843.705 120.112 840.116 117.03 833.117C113.226 839.758 109.602 842.99 102.536 846.042C109.241 849.81 112.504 853.399 115.586 860.398C115.586 860.398 123.014 850.525 130.08 847.472Z" fill="white"/>
<path d="M850.08 585.229C843.374 581.462 840.112 577.873 837.029 570.874C833.226 577.516 829.602 580.747 822.536 583.8C829.241 587.567 832.504 591.156 835.586 598.155C835.586 598.155 843.013 588.282 850.08 585.229Z" fill="white"/>
<path d="M276.93 968.65C270.225 964.882 266.962 961.293 263.88 954.294C260.076 960.936 256.452 964.167 249.386 967.22C256.092 970.987 259.354 974.576 262.436 981.575C262.436 981.575 269.864 971.702 276.93 968.65Z" fill="white"/>
<path d="M433.441 849.406C426.736 845.638 423.473 842.05 420.391 835.051C416.587 841.692 412.964 844.924 405.897 847.976C412.603 851.744 415.865 855.333 418.948 862.331C418.948 862.331 426.375 852.459 433.441 849.406Z" fill="white"/>
<path d="M1153.44 587.163C1146.74 583.396 1143.47 579.807 1140.39 572.808C1136.59 579.45 1132.96 582.681 1125.9 585.734C1132.6 589.501 1135.87 593.09 1138.95 600.089C1138.95 600.089 1146.37 590.216 1153.44 587.163Z" fill="white"/>
<path d="M616.36 965.426C609.654 961.659 606.392 958.07 603.31 951.071C599.506 957.713 595.882 960.944 588.816 963.997C595.521 967.764 598.784 971.353 601.866 978.352C601.866 978.352 609.293 968.479 616.36 965.426Z" fill="white"/>
<path d="M843.076 891.302C836.37 887.535 833.107 883.946 830.025 876.947C826.221 883.588 822.598 886.82 815.531 889.872C822.237 893.64 825.5 897.229 828.582 904.228C828.582 904.228 836.009 894.355 843.076 891.302Z" fill="white"/>
<path d="M1150.95 993.143C1144.24 989.375 1140.98 985.786 1137.89 978.788C1134.09 985.429 1130.47 988.66 1123.4 991.713C1130.11 995.481 1133.37 999.069 1136.45 1006.07C1136.45 1006.07 1143.88 996.195 1150.95 993.143Z" fill="white"/>
<path d="M631.174 371.787C624.468 368.02 621.206 364.431 618.123 357.432C614.32 364.074 610.696 367.305 603.63 370.358C610.335 374.125 613.598 377.714 616.68 384.713C616.68 384.713 624.107 374.84 631.174 371.787Z" fill="white"/>
<path d="M1351.17 109.544C1344.47 105.777 1341.21 102.188 1338.12 95.1893C1334.32 101.831 1330.7 105.062 1323.63 108.115C1330.33 111.882 1333.6 115.471 1336.68 122.47C1336.68 122.47 1344.11 112.597 1351.17 109.544Z" fill="white"/>
<path d="M497.205 548.397C490.499 544.629 487.237 541.041 484.155 534.042C480.351 540.683 476.727 543.915 469.661 546.967C476.366 550.735 479.629 554.323 482.711 561.322C482.711 561.322 490.139 551.45 497.205 548.397Z" fill="white"/>
<path d="M1217.2 286.154C1210.5 282.386 1207.24 278.798 1204.15 271.799C1200.35 278.44 1196.73 281.672 1189.66 284.724C1196.37 288.492 1199.63 292.081 1202.71 299.079C1202.71 299.079 1210.14 289.207 1217.2 286.154Z" fill="white"/>
<path d="M716.205 131.893C709.499 128.126 706.237 124.537 703.155 117.538C699.351 124.18 695.727 127.411 688.661 130.464C695.366 134.231 698.629 137.82 701.711 144.819C701.711 144.819 709.139 134.946 716.205 131.893Z" fill="white"/>
<path d="M1688.1 495.838C1681.4 492.07 1678.13 488.481 1675.05 481.483C1671.25 488.124 1667.63 491.355 1660.56 494.408C1667.26 498.175 1670.53 501.764 1673.61 508.763C1673.61 508.763 1681.04 498.89 1688.1 495.838Z" fill="white"/>
<path d="M1716.67 90.1395C1709.97 86.372 1706.7 82.7832 1703.62 75.7843C1699.82 82.4257 1696.19 85.6571 1689.13 88.7097C1695.83 92.4772 1699.1 96.066 1702.18 103.065C1702.18 103.065 1709.61 93.1921 1716.67 90.1395Z" fill="white"/>
</svg>
