<svg width="32" height="32" viewBox="0 0 32 32" fill="none" xmlns="http://www.w3.org/2000/svg">
<path d="M12 9.06077H14.6393V21.1429C14.6393 21.3001 14.7678 21.4286 14.925 21.4286H17.0678C17.225 21.4286 17.3535 21.3001 17.3535 21.1429V9.06077H20C20.2393 9.06077 20.3714 8.78577 20.225 8.60006L16.225 3.53577C16.1982 3.50162 16.1641 3.47401 16.1251 3.45501C16.0861 3.43602 16.0433 3.42615 16 3.42615C15.9566 3.42615 15.9138 3.43602 15.8748 3.45501C15.8358 3.47401 15.8017 3.50162 15.775 3.53577L11.775 8.59649C11.6285 8.78577 11.7607 9.06077 12 9.06077ZM29.0714 20.0715H26.9285C26.7714 20.0715 26.6428 20.2001 26.6428 20.3572V25.8572H5.35711V20.3572C5.35711 20.2001 5.22854 20.0715 5.07139 20.0715H2.92854C2.77139 20.0715 2.64282 20.2001 2.64282 20.3572V27.4286C2.64282 28.0608 3.15354 28.5715 3.78568 28.5715H28.2143C28.8464 28.5715 29.3571 28.0608 29.3571 27.4286V20.3572C29.3571 20.2001 29.2285 20.0715 29.0714 20.0715Z" fill="black"/>
</svg>
