<svg width="54" height="41" viewBox="0 0 54 41" fill="none" xmlns="http://www.w3.org/2000/svg">
<g clip-path="url(#clip0_138_499)">
<mask id="mask0_138_499" style="mask-type:alpha" maskUnits="userSpaceOnUse" x="7" y="0" width="40" height="41">
<path d="M46.372 20.2941C46.372 9.63826 37.7158 1 27.0378 1C16.3597 1 7.70349 9.63826 7.70349 20.2941C7.70349 30.95 16.3597 39.5882 27.0378 39.5882C37.7158 39.5882 46.372 30.95 46.372 20.2941Z" fill="#000F1E" stroke="black"/>
</mask>
<g mask="url(#mask0_138_499)">
<path d="M46.372 20.2941C46.372 9.63826 37.7158 1 27.0378 1C16.3597 1 7.70349 9.63826 7.70349 20.2941C7.70349 30.95 16.3597 39.5882 27.0378 39.5882C37.7158 39.5882 46.372 30.95 46.372 20.2941Z" fill="#000F1E" stroke="black"/>
<path d="M14.9161 33.1066C16.5021 33.0313 19.9762 35.1039 20.1273 39.5882C20.1275 39.5954 20.6192 39.6012 20.6182 39.5882C20.3161 35.8952 22.0154 33.1066 26.1692 33.5588C23.7524 32.6167 21.5245 33.7849 20.6559 34.8778C21.3357 24.2132 27 17.3171 27 17.3171L26.6224 17.0156C26.6224 17.0156 20.3916 25.1176 20.0895 35.7445C19.9007 35.6314 18.2014 32.5414 14.9161 33.1066Z" fill="#F3C432"/>
<path d="M27.2643 28.1701C25.2629 33.182 21.2224 33.0313 20.6559 32.9936C20.8419 29.9035 23.9035 26.9265 27.2643 28.1701Z" fill="#FFD83B"/>
<path d="M16.8797 24.7031C19.5231 25.7206 20.8122 28.6322 20.6182 32.9559C17.3706 32.7298 15.558 28.6222 16.8797 24.7031Z" fill="#FFD83B"/>
<path d="M19.7119 18.2592C22.0531 19.6535 22.9972 23.3465 21.8643 26.9641C18.3524 26.1728 17.9748 20.897 19.7119 18.2592Z" fill="#FFD83B"/>
<path d="M29.3035 23.4596C27.6042 26.4366 24.4699 27.7556 21.9021 27.0019C23.0727 23.3089 26.7357 21.9523 29.3035 23.4596Z" fill="#FFD83B"/>
<path d="M23.6392 12.3052C21.6755 14.4908 20.6559 19.4651 24.2056 21.3116C25.9426 17.7316 25.8294 14.4155 23.6392 12.3052Z" fill="#FFD83B"/>
<path d="M32.1357 19.1259C30.172 21.5377 26.9245 22.6305 24.2433 21.3493C26.0182 18.0331 29.8322 17.1287 32.1357 19.1259Z" fill="#FFD83B"/>
<path d="M32.8531 10.6847C29.6434 10.6847 26.0559 14.0762 26.3958 17.7316C30.0587 16.4503 32.0224 13.8124 32.8531 10.6847Z" fill="#FFD83B"/>
<path d="M27.4909 35.3213C28.5317 35.2717 30.8116 36.6345 30.9107 39.5832C30.9109 39.5879 31.2336 39.5917 31.2329 39.5832C31.0347 37.155 32.1499 35.3213 34.8758 35.6187C33.2898 34.9992 31.8277 35.7673 31.2577 36.4859C31.7037 29.4736 35.421 24.9391 35.421 24.9391L35.1732 24.7408C35.1732 24.7408 31.0842 30.0682 30.886 37.0558C30.7621 36.9815 29.6469 34.9496 27.4909 35.3213Z" fill="#F3C432"/>
<path d="M35.5943 32.0507C34.277 35.3341 31.6176 35.2354 31.2448 35.2107C31.3671 33.1863 33.3823 31.236 35.5943 32.0507Z" fill="#FFD83B"/>
<path d="M28.7593 29.7794C30.4991 30.446 31.3476 32.3535 31.2199 35.1861C29.0824 35.0379 27.8894 32.347 28.7593 29.7794Z" fill="#FFD83B"/>
<path d="M30.6234 25.5577C32.1644 26.4712 32.7858 28.8906 32.0401 31.2606C29.7287 30.7421 29.4801 27.2859 30.6234 25.5577Z" fill="#FFD83B"/>
<path d="M36.9365 28.9647C35.818 30.915 33.7551 31.7791 32.065 31.2854C32.8355 28.866 35.2463 27.9772 36.9365 28.9647Z" fill="#FFD83B"/>
<path d="M33.2083 21.6571C31.9158 23.089 31.2448 26.3478 33.581 27.5575C34.7244 25.2121 34.6498 23.0396 33.2083 21.6571Z" fill="#FFD83B"/>
<path d="M38.8005 26.1257C37.5081 27.7057 35.3706 28.4216 33.606 27.5822C34.7741 25.4098 37.2844 24.8172 38.8005 26.1257Z" fill="#FFD83B"/>
<path d="M39.2727 20.5956C37.1601 20.5956 34.799 22.8175 35.0227 25.2122C37.4335 24.3728 38.7259 22.6447 39.2727 20.5956Z" fill="#FFD83B"/>
<path d="M39.1217 9.13968C38.3664 8.76284 37.9888 8.386 37.6112 7.63232C37.2336 8.386 36.8559 8.76284 36.1007 9.13968C36.8559 9.51652 37.2336 9.89335 37.6112 10.647C37.6112 10.647 38.3664 9.51652 39.1217 9.13968Z" fill="white"/>
</g>
<g filter="url(#filter0_d_138_499)">
<path d="M15.3315 23.5883C15.1553 23.9902 14.9979 24.3419 14.8595 24.6434C14.721 24.9449 14.6014 25.2024 14.5007 25.4159C14.3874 25.6546 14.293 25.8681 14.2175 26.0565C14.1546 26.1947 14.0727 26.3831 13.972 26.6218C13.8714 26.8353 13.7455 27.118 13.5944 27.4697C13.456 27.8088 13.2734 28.2485 13.0469 28.7886C12.9336 28.3238 12.7951 27.9156 12.6315 27.5639C12.4678 27.2122 12.2916 26.9044 12.1028 26.6406C11.914 26.3769 11.7126 26.1633 11.4986 26C11.2972 25.8242 11.0958 25.6797 10.8944 25.5667C10.4287 25.3155 9.93775 25.1772 9.42169 25.1521C8.74197 25.1898 8.20703 25.3029 7.81679 25.4913C7.43917 25.6671 7.16225 25.8744 6.98602 26.1131C6.8098 26.3392 6.7154 26.5779 6.70281 26.8291C6.69022 27.0678 6.72169 27.2687 6.79721 27.432C6.86015 27.5827 7.08043 27.7586 7.45805 27.9596C7.84829 28.1606 8.31397 28.3929 8.85526 28.6567C9.40908 28.9079 10.0007 29.1969 10.6301 29.5235C11.2594 29.8375 11.8385 30.1892 12.3671 30.5786C12.9084 30.9554 13.3616 31.37 13.7266 31.8222C14.1042 32.2618 14.3119 32.7328 14.3497 33.2353C14.3874 33.8759 14.3812 34.4538 14.3308 34.9688C14.2804 35.4838 14.1042 35.9235 13.8021 36.2877C13.5 36.652 13.028 36.9409 12.386 37.1544C11.7567 37.368 10.8818 37.4998 9.76155 37.5501C8.60353 37.6004 7.65313 37.5375 6.9105 37.3617C6.16784 37.1859 5.56365 36.9472 5.09791 36.6457C4.64477 36.3442 4.30491 36.0113 4.07833 35.6471C3.86435 35.2828 3.707 34.9373 3.6063 34.6108C3.50561 34.2716 3.43637 33.9827 3.39861 33.744C3.36085 33.4928 3.29791 33.3421 3.2098 33.2918C3.1091 33.2291 3.0084 33.1725 2.9077 33.1223C2.81959 33.072 2.72518 33.0281 2.62449 32.9904C2.52379 32.9401 2.42308 32.8962 2.32239 32.8585L7.81679 31.9729C7.50211 32.2241 7.25665 32.4565 7.08043 32.6701C6.91679 32.8836 6.79092 33.072 6.70281 33.2353C6.60211 33.4237 6.53288 33.5996 6.49512 33.7629C6.46994 33.9387 6.52659 34.1586 6.66505 34.4224C6.8035 34.6861 6.99232 34.9437 7.23148 35.1949C7.48322 35.4336 7.77276 35.6345 8.10001 35.7978C8.42726 35.9611 8.76712 36.0302 9.11959 36.0051C9.56013 35.9674 9.91887 35.8606 10.1958 35.6848C10.4728 35.4963 10.6805 35.264 10.8189 34.9876C10.9699 34.7112 11.0581 34.4098 11.0832 34.0832C11.1084 33.7566 11.077 33.4363 10.9888 33.1223C10.9133 32.7957 10.7874 32.4942 10.6112 32.2179C10.435 31.929 10.2273 31.6903 9.98812 31.5019C9.77416 31.3511 9.44057 31.2066 8.98742 31.0685C8.54689 30.9303 8.04964 30.7796 7.49581 30.6163C6.95455 30.453 6.39442 30.2645 5.81539 30.051C5.24896 29.8375 4.73288 29.5737 4.26714 29.2597C3.814 28.9456 3.44896 28.5751 3.17204 28.148C2.9077 27.7209 2.80701 27.2059 2.86994 26.603C2.92029 26.088 3.08392 25.6609 3.36085 25.3217C3.65036 24.97 4.0091 24.6937 4.43707 24.4927C4.87763 24.2792 5.36225 24.1221 5.89092 24.0216C6.43218 23.9212 6.97973 23.8646 7.53358 23.852C8.10001 23.8269 8.65383 23.8332 9.19512 23.8709C9.74894 23.9086 10.2462 23.9525 10.6867 24.0028C11.1273 24.053 11.4986 24.1032 11.8007 24.1535C12.1154 24.1912 12.3105 24.2163 12.386 24.2289C12.7133 24.254 13.0406 24.2477 13.3678 24.21C13.6573 24.1849 13.972 24.1284 14.3119 24.0405C14.6644 23.94 15.0042 23.7893 15.3315 23.5883ZM14.765 28.6002C15.1678 28.5374 15.4951 28.4872 15.7469 28.4495C16.0112 28.3992 16.2252 28.3615 16.3888 28.3364C16.5776 28.2987 16.7224 28.2673 16.8231 28.2422C16.9238 28.2171 17.0685 28.1794 17.2574 28.1292C17.421 28.0789 17.635 28.0224 17.8993 27.9596C18.1636 27.8842 18.4972 27.7837 18.9 27.6581C18.7993 27.7837 18.7175 27.8968 18.6546 27.9973C18.6042 28.0852 18.5539 28.1606 18.5035 28.2234C18.4531 28.2987 18.4091 28.3678 18.3713 28.4306C18.3336 28.4934 18.2958 28.5876 18.2581 28.7133C18.2329 28.8137 18.2014 28.9582 18.1636 29.1466C18.1259 29.3225 18.0944 29.5549 18.0692 29.8438C18.749 29.4167 19.372 29.0964 19.9385 28.8828C20.5175 28.6693 21.021 28.5186 21.449 28.4306C21.9525 28.3302 22.4056 28.2925 22.8084 28.3176C23.3119 28.3553 23.7776 28.4683 24.2056 28.6567C24.6461 28.8326 25.0426 29.0462 25.3951 29.2974C25.7476 29.5486 26.056 29.8249 26.3203 30.1264C26.5846 30.4279 26.7923 30.7293 26.9434 31.0308C27.044 31.2318 27.107 31.5207 27.1322 31.8975C27.1699 32.2744 27.1322 32.6763 27.0189 33.1034C26.9056 33.5305 26.7042 33.9513 26.4147 34.3658C26.1377 34.7678 25.7412 35.0881 25.2252 35.3268C24.3315 35.7287 23.4441 35.9548 22.5629 36.0051C22.1853 36.0302 21.7951 36.0177 21.3923 35.9674C21.0021 35.9171 20.6056 35.8104 20.2028 35.6471C19.8126 35.4838 19.435 35.2514 19.0699 34.9499C18.7049 34.6359 18.3713 34.2339 18.0692 33.744C17.9686 34.3847 17.893 34.9437 17.8427 35.421C17.8049 35.8858 17.7798 36.2751 17.7671 36.5892C17.7545 36.9534 17.7545 37.2612 17.7671 37.5124C17.7923 37.7636 17.8427 38.0337 17.9182 38.3226C17.9811 38.5738 18.0692 38.8628 18.1825 39.1894C18.3084 39.5285 18.4657 39.8803 18.6546 40.2445C18.579 40.2194 18.472 40.2006 18.3336 40.188C18.2077 40.188 18.0755 40.2006 17.9371 40.2257C17.786 40.2508 17.6161 40.2759 17.4273 40.301C17.2511 40.3387 17.0559 40.3827 16.842 40.4329C16.6658 40.4706 16.4581 40.5146 16.2189 40.5648C15.9923 40.6276 15.7595 40.6967 15.5203 40.7721C15.6587 40.6088 15.7657 40.4203 15.8413 40.2068C15.9294 40.0058 15.9986 39.8174 16.049 39.6416C16.0993 39.4281 16.1434 39.2145 16.1811 39.0009C16.1937 38.8125 16.2126 38.4545 16.2378 37.927C16.2755 37.412 16.307 36.8153 16.3322 36.137C16.3573 35.4461 16.3762 34.7238 16.3888 33.9702C16.414 33.2165 16.4266 32.5193 16.4266 31.8787C16.4392 31.2255 16.4392 30.6728 16.4266 30.2206C16.414 29.7684 16.3888 29.5046 16.3511 29.4292C16.3007 29.3413 16.2063 29.2471 16.0678 29.1466C15.9546 29.0587 15.7909 28.9708 15.5769 28.8828C15.3755 28.7949 15.1049 28.7007 14.765 28.6002ZM19.2588 32.0294C19.1706 32.3183 19.1517 32.6009 19.2021 32.8773C19.2525 33.1537 19.3783 33.4111 19.5797 33.6498C19.7937 33.8885 20.0895 34.102 20.4671 34.2905C20.8574 34.4663 21.3419 34.5982 21.921 34.6861C22.5 34.7741 22.9406 34.7615 23.2427 34.6485C23.5448 34.5354 23.7651 34.3596 23.9035 34.1209C24.0546 33.8697 24.1552 33.5807 24.2056 33.2542C24.256 32.915 24.3189 32.5633 24.3944 32.199C24.4699 31.8473 24.4573 31.4893 24.3567 31.125C24.256 30.7482 24.1112 30.409 23.9224 30.1076C23.7462 29.8061 23.5448 29.5611 23.3182 29.3727C23.1042 29.1717 22.9154 29.0713 22.7518 29.0713C22.3615 29.0713 21.9776 29.1717 21.6 29.3727C21.2224 29.5737 20.8763 29.8249 20.5615 30.1264C20.2468 30.4279 19.97 30.7544 19.7308 31.1062C19.5042 31.4453 19.3469 31.7531 19.2588 32.0294ZM27.9063 28.9582L31.3804 28.9959C31.179 29.7621 31.028 30.4153 30.9273 30.9554C30.8391 31.4956 30.7825 31.9478 30.7574 32.3121C30.707 32.7266 30.6944 33.0783 30.7196 33.3672C30.7574 33.631 30.8203 33.9136 30.9084 34.2151C30.9839 34.4663 31.0972 34.7553 31.2483 35.0818C31.3993 35.4084 31.6007 35.735 31.8525 36.0616C31.7014 36.0113 31.5377 35.9736 31.3615 35.9486C31.1854 35.9235 31.0217 35.9046 30.8706 35.892C30.6944 35.8794 30.5182 35.8794 30.342 35.892C30.1658 35.9046 29.9706 35.9235 29.7567 35.9486C29.5805 35.9736 29.3664 36.0051 29.1147 36.0428C28.863 36.0804 28.5986 36.1307 28.3217 36.1935C28.5105 35.6282 28.6553 35.1383 28.756 34.7238C28.8692 34.3093 28.951 33.9639 29.0014 33.6875C29.0518 33.361 29.0832 33.0972 29.0958 32.8962C29.0958 32.645 29.0958 32.3623 29.0958 32.0483C29.0958 31.7217 29.0958 31.4077 29.0958 31.1062C29.0958 30.8047 29.0895 30.5409 29.0769 30.3148C29.0643 30.0761 29.0392 29.9254 29.0014 29.8626L28.8126 29.6742C28.7371 29.6114 28.6238 29.5235 28.4727 29.4104C28.3343 29.2848 28.1455 29.134 27.9063 28.9582ZM29.2469 26.0565C29.5112 25.9184 29.7755 25.8807 30.0399 25.9435C30.3168 26.0063 30.5308 26.1257 30.6818 26.3015C30.8329 26.4773 30.8833 26.6846 30.8329 26.9233C30.7951 27.162 30.5937 27.3943 30.2287 27.6204C29.8637 27.8339 29.5427 27.9093 29.2657 27.8465C28.9888 27.7837 28.7937 27.6519 28.6804 27.4508C28.5671 27.2498 28.5483 27.0175 28.6238 26.7537C28.6993 26.4773 28.907 26.245 29.2469 26.0565ZM32.3434 23.7955C32.4818 23.8583 32.6455 23.9023 32.8343 23.9274C33.0357 23.9525 33.2245 23.9651 33.4007 23.9651C33.6147 23.9651 33.835 23.9588 34.0616 23.9463C34.2881 23.9337 34.5651 23.9086 34.8923 23.8709C35.1567 23.8458 35.4839 23.8144 35.8741 23.7767C36.2644 23.739 36.6986 23.6887 37.1769 23.6259C37.0007 23.7139 36.8497 23.8081 36.7238 23.9086C36.5979 24.009 36.4909 24.1096 36.4028 24.21C36.3021 24.3231 36.2203 24.4361 36.1574 24.5492C36.0692 24.6999 35.9497 24.9637 35.7986 25.3406C35.6602 25.7048 35.5154 26.1131 35.3643 26.5653C35.2259 27.0175 35.1 27.4759 34.9867 27.9407C34.8861 28.4055 34.8294 28.8012 34.8168 29.1278C34.8042 29.4042 34.7916 29.7181 34.779 30.0699C34.7664 30.3713 34.7539 30.7419 34.7413 31.1815C34.7287 31.6212 34.7161 32.1236 34.7035 32.6889C35.6098 32.0357 36.3084 31.5144 36.7993 31.125C37.2902 30.7231 37.649 30.4153 37.8755 30.2018C38.1399 29.9631 38.2972 29.7935 38.3476 29.693C38.335 29.6177 38.3035 29.536 38.2532 29.4481C38.1902 29.3727 38.1021 29.2848 37.9888 29.1843C37.8755 29.0838 37.7056 28.9708 37.479 28.8452C37.8063 28.8828 38.0895 28.9079 38.3287 28.9205C38.5804 28.9331 38.7944 28.9456 38.9706 28.9582C39.1721 28.9708 39.3483 28.9708 39.4993 28.9582C39.663 28.9582 39.8643 28.9519 40.1035 28.9394C40.5189 28.9268 41.1609 28.9079 42.0294 28.8828C41.186 29.3225 40.5189 29.6993 40.028 30.0133C39.751 30.1892 39.5056 30.3525 39.2916 30.5032C39.0777 30.6666 38.8574 30.8361 38.6308 31.012C38.4294 31.1627 38.1965 31.3385 37.9322 31.5395C37.6805 31.7405 37.4287 31.9541 37.1769 32.1802C37.6175 32.8962 38.0014 33.4865 38.3287 33.9513C38.6685 34.4161 38.9518 34.7929 39.1783 35.0818C39.4427 35.421 39.6755 35.691 39.8769 35.892C40.0784 36.0804 40.3427 36.294 40.6699 36.5327C40.9469 36.7462 41.3056 36.9974 41.7462 37.2863C42.1993 37.5627 42.7469 37.883 43.3888 38.2473C43.0616 38.1845 42.7469 38.1405 42.4448 38.1154C42.1427 38.1028 41.8846 38.1028 41.6706 38.1154C41.4063 38.128 41.1671 38.1531 40.9532 38.1907C40.7266 38.241 40.4749 38.3038 40.1979 38.3792C39.9587 38.4419 39.6755 38.5236 39.3483 38.6241C39.0336 38.7372 38.6874 38.8816 38.3098 39.0575C38.549 38.8816 38.7252 38.7121 38.8385 38.5487C38.9644 38.398 39.0524 38.2724 39.1028 38.1719C39.1532 38.0463 39.1721 37.9395 39.1595 37.8516C39.0965 37.7259 38.9518 37.4685 38.7252 37.0791C38.5112 36.7525 38.1965 36.2751 37.7811 35.6471C37.3657 35.019 36.7742 34.1648 36.0063 33.0846C35.9685 33.0972 35.9056 33.1349 35.8175 33.1976C35.742 33.2604 35.6287 33.3484 35.4776 33.4614C35.3266 33.5619 35.1252 33.7126 34.8734 33.9136L35.3832 37.211C35.2699 37.2612 35.144 37.3052 35.0056 37.3429C34.8797 37.3805 34.7602 37.412 34.6469 37.4371C34.5084 37.4747 34.3699 37.4998 34.2315 37.5124C34.093 37.525 33.9294 37.5501 33.7406 37.5878C33.5769 37.6129 33.3818 37.6443 33.1553 37.682C32.9287 37.7323 32.6706 37.7888 32.3811 37.8516C32.5448 37.7385 32.677 37.6066 32.7776 37.4559C32.8783 37.3178 32.9602 37.1859 33.0231 37.0602C33.086 36.9221 33.1426 36.7776 33.193 36.6269C33.2182 36.5012 33.2434 36.1747 33.2685 35.6471C33.3063 35.1195 33.3378 34.4915 33.3629 33.7629C33.3881 33.0218 33.407 32.2304 33.4196 31.3888C33.4447 30.5472 33.4574 29.7558 33.4574 29.0147C33.4574 28.2611 33.4511 27.6078 33.4385 27.0552C33.4259 26.4899 33.4007 26.1257 33.3629 25.9623C33.3 25.7613 33.2245 25.5478 33.1364 25.3217C33.0609 25.1207 32.9538 24.8946 32.8154 24.6434C32.6895 24.3796 32.5322 24.097 32.3434 23.7955ZM42.5769 29.7496C42.6398 29.6742 42.6776 29.536 42.6902 29.335C42.7154 29.1215 42.7657 28.8828 42.8413 28.619C42.9294 28.3553 43.0741 28.0789 43.2755 27.79C43.477 27.5011 43.8042 27.231 44.2574 26.9798C44.6979 26.7286 45.1259 26.5779 45.5413 26.5276C45.9567 26.4773 46.3532 26.4962 46.7308 26.5841C47.1084 26.6721 47.4609 26.8102 47.7881 26.9986C48.128 27.1871 48.4364 27.3943 48.7133 27.6204C48.9021 27.7712 49.0532 27.991 49.1664 28.2799C49.2797 28.5563 49.3679 28.8702 49.4308 29.222C49.4937 29.5737 49.5378 29.9442 49.5629 30.3337C49.6007 30.7105 49.6259 31.0811 49.6385 31.4453C49.6511 31.7971 49.6574 32.1236 49.6574 32.4251C49.67 32.714 49.6951 32.9527 49.7329 33.1411C49.7833 33.4175 49.8713 33.6561 49.9972 33.8571C50.1231 34.0455 50.2616 34.2088 50.4126 34.347C50.5636 34.4726 50.7147 34.5731 50.8657 34.6485C51.0168 34.7238 51.149 34.7804 51.2623 34.818C51.3378 34.8557 51.407 34.8808 51.4699 34.8934C51.5958 34.9437 51.6839 34.9437 51.7343 34.8934C51.6588 35.0692 51.5895 35.22 51.5266 35.3456C51.4637 35.4712 51.4133 35.578 51.3755 35.6659C51.3252 35.7664 51.2811 35.8481 51.2434 35.9109C51.2056 35.9862 51.1616 36.0553 51.1112 36.1181C51.0734 36.1809 51.0231 36.25 50.9602 36.3254C50.8972 36.4008 50.8343 36.4824 50.7713 36.5703C50.6077 36.5076 50.4504 36.4322 50.2993 36.3442C50.1609 36.2563 50.035 36.1747 49.9217 36.0993C49.7833 36.0113 49.6574 35.9235 49.5441 35.8355C49.4308 35.7475 49.3238 35.6471 49.2231 35.534C49.135 35.4336 49.0405 35.3268 48.9399 35.2137C48.8517 35.1007 48.7762 34.975 48.7133 34.8369C48.6378 35.0002 48.4552 35.2326 48.1657 35.534C47.8888 35.8355 47.5238 36.1119 47.0706 36.3631C46.6175 36.6018 46.0888 36.7713 45.4846 36.8718C44.893 36.9723 44.2385 36.9032 43.521 36.6645C43.2063 36.5641 42.9105 36.4196 42.6336 36.2312C42.3566 36.0302 42.1175 35.7916 41.9161 35.5152C41.7273 35.2388 41.5888 34.9248 41.5007 34.5731C41.4252 34.2088 41.4315 33.8068 41.5196 33.3672C41.6077 32.9276 41.765 32.557 41.9916 32.2555C42.2182 31.9541 42.4888 31.7091 42.8035 31.5207C43.1182 31.3323 43.4706 31.1878 43.8609 31.0873C44.2511 30.9869 44.6539 30.9178 45.0692 30.8801C45.3965 30.8675 45.7238 30.8863 46.0511 30.9366C46.328 30.9869 46.6175 31.0811 46.9196 31.2192C47.2217 31.3449 47.4798 31.5395 47.6937 31.8033C47.6811 31.1376 47.656 30.61 47.6182 30.2206C47.593 29.8187 47.5678 29.5109 47.5427 29.2974C47.4923 29.0462 47.4483 28.8702 47.4105 28.7698C47.3476 28.6818 47.2783 28.5814 47.2028 28.4683C47.1399 28.3553 47.058 28.2548 46.9574 28.1668C46.8567 28.0664 46.7308 27.9847 46.5797 27.9219C46.4287 27.8591 46.2525 27.8339 46.0511 27.8465C45.8371 27.8591 45.6672 27.9156 45.5413 28.0161C45.4154 28.1166 45.3147 28.236 45.2392 28.3741C45.1763 28.4997 45.1385 28.6379 45.1259 28.7886C45.1133 28.9394 45.1196 29.0713 45.1448 29.1843C45.1699 29.2597 45.2077 29.3413 45.2581 29.4292C45.3084 29.5046 45.3776 29.5862 45.4657 29.6742C45.5539 29.7621 45.6734 29.8375 45.8245 29.9003C45.535 29.938 45.2769 29.9694 45.0504 29.9945C44.8238 30.0071 44.6287 30.0259 44.465 30.051C44.2762 30.0761 44.1126 30.095 43.9741 30.1076C43.8357 30.1201 43.672 30.1452 43.4832 30.1829C43.3196 30.208 43.1182 30.2395 42.879 30.2771C42.6398 30.3148 42.363 30.3651 42.0483 30.4279C42.1238 30.3399 42.193 30.2583 42.256 30.1829C42.3189 30.095 42.3755 30.0196 42.4259 29.9568C42.4763 29.8815 42.5266 29.8123 42.5769 29.7496ZM45.4091 31.9918C45.1825 32.0043 44.956 32.0609 44.7294 32.1613C44.5028 32.2493 44.3014 32.3812 44.1252 32.557C43.949 32.7203 43.7979 32.915 43.672 33.1411C43.5588 33.3546 43.5021 33.5933 43.5021 33.8571C43.5021 34.1209 43.565 34.3532 43.6909 34.5543C43.8294 34.7427 44.0056 34.8997 44.2196 35.0253C44.4462 35.1509 44.6854 35.2263 44.9371 35.2514C45.2014 35.2765 45.4595 35.2514 45.7112 35.176C45.9504 35.0881 46.177 34.9499 46.3909 34.7615C46.6049 34.5605 46.7874 34.347 46.9385 34.1209C47.0895 33.8822 47.1965 33.6498 47.2595 33.4237C47.3224 33.185 47.3287 32.9904 47.2783 32.8396C47.1777 32.5131 46.9511 32.287 46.5986 32.1613C46.2461 32.0232 45.8496 31.9667 45.4091 31.9918Z" fill="#FF9900"/>
</g>
</g>
<defs>
<filter id="filter0_d_138_499" x="-0.677612" y="20.5883" width="55.4119" height="23.1838" filterUnits="userSpaceOnUse" color-interpolation-filters="sRGB">
<feFlood flood-opacity="0" result="BackgroundImageFix"/>
<feColorMatrix in="SourceAlpha" type="matrix" values="0 0 0 0 0 0 0 0 0 0 0 0 0 0 0 0 0 0 127 0" result="hardAlpha"/>
<feOffset/>
<feGaussianBlur stdDeviation="1.5"/>
<feComposite in2="hardAlpha" operator="out"/>
<feColorMatrix type="matrix" values="0 0 0 0 1 0 0 0 0 0.6 0 0 0 0 0 0 0 0 0.5 0"/>
<feBlend mode="normal" in2="BackgroundImageFix" result="effect1_dropShadow_138_499"/>
<feBlend mode="normal" in="SourceGraphic" in2="effect1_dropShadow_138_499" result="shape"/>
</filter>
<clipPath id="clip0_138_499">
<rect width="54" height="41" fill="white"/>
</clipPath>
</defs>
</svg>
