<svg width="18" height="13" viewBox="0 0 18 13" fill="none" xmlns="http://www.w3.org/2000/svg">
<path d="M11.4742 2.55882L11.4795 2.55351L11.0971 0.641479H8.42824V4.04064H10.0428C10.473 3.52811 10.9511 3.0262 11.4742 2.55882V2.55882ZM7.57844 0.644135H4.90957L4.22974 4.0433H7.57844V0.644135ZM12.6055 2.55882C13.0888 2.99168 13.5482 3.45376 13.9625 3.92645C14.1139 3.77774 14.2652 3.63168 14.4219 3.49359L14.9876 2.98903L15.5532 3.49359C15.5824 3.51749 15.609 3.54936 15.6355 3.57591C15.6329 3.55467 15.6408 3.53608 15.6355 3.51483L14.9982 0.965462C14.953 0.776915 14.7831 0.644135 14.5892 0.644135H11.9628L12.2895 2.27733L12.6055 2.55882ZM0.78012 4.0433H3.36401L4.04385 0.644135H1.41746C1.2236 0.644135 1.05365 0.776915 1.00585 0.965462L0.368503 3.51483C0.302113 3.78305 0.503938 4.0433 0.78012 4.0433ZM9.40018 4.89309H1.20502L1.31124 5.74288H0.78012C0.546427 5.74288 0.355225 5.93408 0.355225 6.16777V7.01756C0.355225 7.25126 0.546427 7.44246 0.78012 7.44246H1.52369L2.05481 11.6914V12.1163C2.05481 12.35 2.24601 12.5412 2.4797 12.5412H3.32949C3.56318 12.5412 3.75439 12.35 3.75439 12.1163V11.6914H9.29927C8.49728 10.7965 8.00334 9.6227 8.00334 8.33474C8.00334 7.38138 8.5318 6.13325 9.40018 4.89309V4.89309ZM14.9902 4.12828C14.5945 4.48147 14.2387 4.8506 13.9227 5.22238C13.4048 4.53724 12.7648 3.84147 12.0372 3.19351C10.173 4.85857 8.85048 7.02553 8.85048 8.33474C8.85048 10.6584 10.7519 12.5412 13.0994 12.5412C15.447 12.5412 17.3484 10.6584 17.3484 8.33474C17.351 7.36279 16.3658 5.35516 14.9902 4.12828V4.12828ZM14.4963 10.2202C14.1059 10.5044 13.6226 10.6717 13.1021 10.6717C11.8008 10.6717 10.7413 9.78204 10.7413 8.33474C10.7413 7.61507 11.1794 6.98039 12.0531 5.89425C12.1779 6.04296 13.835 8.23383 13.835 8.23383L14.892 6.9857C14.9663 7.11317 15.0354 7.23798 15.0964 7.35748C15.5904 8.33208 15.3832 9.57756 14.4963 10.2202Z" fill="black"/>
</svg>
