<svg width="22" height="17" viewBox="0 0 22 17" fill="none" xmlns="http://www.w3.org/2000/svg">
<path d="M2.00031 0C0.895556 0 0 0.895556 0 2.00031V14.0022C0 15.1069 0.895556 16.0025 2.00031 16.0025H8.5C6.9851 15.5039 6.36038 15.0415 5.5 14.0022H2.25035C2.18404 14.0022 2.12044 13.9758 2.07355 13.9289C2.02665 13.8821 2.00031 13.8185 2.00031 13.7521V2.25035C2.00031 2.18404 2.02665 2.12044 2.07355 2.07355C2.12044 2.02665 2.18404 2.00031 2.25035 2.00031H6.5L8.5 0H2.00031Z" fill="black"/>
<path d="M19.3363 16.0025C20.4411 16.0025 21.3367 15.1069 21.3367 14.0022V2.00031C21.3367 0.895556 20.4411 0 19.3363 0H10L12 2.00031L13 2L14 1L15.1381 2.00011L19.0863 2.00031C19.1526 2.00031 19.2162 2.02665 19.2631 2.07355C19.31 2.12044 19.3363 2.18404 19.3363 2.25035V13.7521C19.3363 13.8185 19.31 13.8821 19.2631 13.9289C19.2162 13.9758 19.1526 14.0022 19.0863 14.0022H16.3555C15.3548 14.9813 14.8436 15.42 13.5 16L19.3363 16.0025Z" fill="black"/>
<path fill-rule="evenodd" clip-rule="evenodd" d="M14.115 1.6C13.4631 2.20455 12.8769 2.83636 12.3562 3.47273C11.5031 2.3 10.4487 1.10909 9.24999 0C6.17875 2.85 4 6.55909 4 8.8C4 12.7773 7.1325 16 11 16C14.8675 16 17.7867 12.7773 17.7867 8.8C17.7911 7.13637 16.3812 3.7 14.115 1.6ZM11.1132 14C12.2405 14 13.2873 13.6148 14.1328 12.9605C16.0539 11.4808 16.5025 8.61312 15.4327 6.3691C15.3004 6.09394 14.5 4.5 14.115 4L12.3562 6C12.3562 6 9.40448 2.59276 9.13416 2.25035C7.24187 4.75118 6 6.9622 6 8.61923C6 11.9516 8.29491 14 11.1132 14Z" fill="black"/>
</svg>
