<svg width="11" height="11" viewBox="0 0 11 11" fill="none" xmlns="http://www.w3.org/2000/svg">
<path d="M2.37062 0.898954C3.24781 0.312839 4.2791 0 5.33408 0C6.74876 0 8.1055 0.561981 9.10584 1.56231C10.1062 2.56265 10.6682 3.91939 10.6682 5.33407C10.6682 6.38906 10.3553 7.42034 9.7692 8.29753C9.18308 9.17471 8.35001 9.85839 7.37534 10.2621C6.40066 10.6658 5.32816 10.7715 4.29345 10.5657C3.25874 10.3598 2.3083 9.85182 1.56232 9.10584C0.816333 8.35985 0.308312 7.40941 0.102495 6.3747C-0.103321 5.33999 0.00231114 4.26749 0.406035 3.29281C0.809758 2.31814 1.49344 1.48507 2.37062 0.898954Z" fill="black"/>
</svg>
