<svg width="58" height="44" viewBox="0 0 58 44" fill="none" xmlns="http://www.w3.org/2000/svg">
<path d="M56.717 23.8532L37.545 43.0251C35.8332 44.7369 32.8662 43.5387 32.8662 41.0851V30.1297H17.346C15.8283 30.1297 14.6072 28.9087 14.6072 27.3909V16.4355C14.6072 14.9177 15.8283 13.6967 17.346 13.6967H32.8662V2.74127C32.8662 0.299136 35.8218 -0.910522 37.545 0.801257L56.717 19.9732C57.7783 21.0459 57.7783 22.7805 56.717 23.8532ZM21.9108 42.4546V37.8898C21.9108 37.1366 21.2945 36.5204 20.5414 36.5204H10.9554C8.93549 36.5204 7.30359 34.8885 7.30359 32.8686V10.9578C7.30359 8.93791 8.93549 7.30602 10.9554 7.30602H20.5414C21.2945 7.30602 21.9108 6.68978 21.9108 5.93659V1.37185C21.9108 0.618668 21.2945 0.00242714 20.5414 0.00242714H10.9554C4.9071 0.00242714 0 4.90953 0 10.9578V32.8686C0 38.9169 4.9071 43.824 10.9554 43.824H20.5414C21.2945 43.824 21.9108 43.2077 21.9108 42.4546Z" fill="black"/>
</svg>
