<svg width="22" height="22" viewBox="0 0 22 22" fill="none" xmlns="http://www.w3.org/2000/svg">
<path d="M5.33408 10.6682C4.2791 10.6682 3.24781 10.981 2.37062 11.5671C1.49344 12.1533 0.809758 12.9863 0.406035 13.961C0.00231115 14.9357 -0.103321 16.0082 0.102495 17.0429C0.308312 18.0776 0.816333 19.028 1.56232 19.774C2.3083 20.52 3.25874 21.028 4.29345 21.2338C5.32816 21.4397 6.40066 21.334 7.37534 20.9303C8.35001 20.5266 9.18308 19.8429 9.7692 18.9657C10.3553 18.0885 10.6682 17.0572 10.6682 16.0023C10.6682 14.5876 10.1062 13.2308 9.10584 12.2305C8.10551 11.2302 6.74876 10.6682 5.33408 10.6682V10.6682ZM21.1279 8.38204L16.6719 0.762231C16.5346 0.530025 16.3391 0.337612 16.1047 0.203953C15.8704 0.0702931 15.6053 0 15.3355 0C15.0657 0 14.8006 0.0702931 14.5662 0.203953C14.3319 0.337612 14.1364 0.530025 13.999 0.762231L9.543 8.38204C8.94958 9.39801 9.69218 10.6682 10.8803 10.6682H19.7907C20.9788 10.6682 21.7214 9.39801 21.1279 8.38204ZM20.0028 12.0017H13.3352C12.9815 12.0017 12.6423 12.1422 12.3923 12.3923C12.1422 12.6424 12.0017 12.9816 12.0017 13.3352V20.0028C12.0017 20.3565 12.1422 20.6957 12.3923 20.9458C12.6423 21.1958 12.9815 21.3363 13.3352 21.3363H20.0028C20.3565 21.3363 20.6956 21.1958 20.9457 20.9458C21.1958 20.6957 21.3363 20.3565 21.3363 20.0028V13.3352C21.3363 12.9816 21.1958 12.6424 20.9457 12.3923C20.6956 12.1422 20.3565 12.0017 20.0028 12.0017Z" fill="black"/>
</svg>
