<svg width="22" height="17" viewBox="0 0 22 17" fill="none" xmlns="http://www.w3.org/2000/svg">
<path d="M19.8744 0.318726H2.5384C1.43364 0.318726 0.538086 1.21428 0.538086 2.31904V14.3209C0.538086 15.4257 1.43364 16.3212 2.5384 16.3212H19.8744C20.9792 16.3212 21.8747 15.4257 21.8747 14.3209V2.31904C21.8747 1.21428 20.9792 0.318726 19.8744 0.318726ZM19.6244 14.3209H2.78844C2.72212 14.3209 2.65852 14.2946 2.61163 14.2477C2.56474 14.2008 2.5384 14.1372 2.5384 14.0709V2.56908C2.5384 2.50276 2.56474 2.43916 2.61163 2.39227C2.65852 2.34538 2.72212 2.31904 2.78844 2.31904H19.6244C19.6907 2.31904 19.7543 2.34538 19.8012 2.39227C19.8481 2.43916 19.8744 2.50276 19.8744 2.56908V14.0709C19.8744 14.1372 19.8481 14.2008 19.8012 14.2477C19.7543 14.2946 19.6907 14.3209 19.6244 14.3209V14.3209ZM5.87225 3.98596C4.95165 3.98596 4.20532 4.73229 4.20532 5.65289C4.20532 6.57349 4.95165 7.31981 5.87225 7.31981C6.79285 7.31981 7.53918 6.57349 7.53918 5.65289C7.53918 4.73229 6.79285 3.98596 5.87225 3.98596ZM4.53871 12.3206H17.8741V8.98674L14.2271 5.33972C14.0318 5.14443 13.7152 5.14443 13.5199 5.33972L8.53933 10.3203L6.89262 8.67357C6.69734 8.47829 6.3807 8.47829 6.18538 8.67357L4.53871 10.3203V12.3206Z" fill="black"/>
</svg>
