<svg width="100%" height="100%" viewBox="0 0 514 514" fill="none" xmlns="http://www.w3.org/2000/svg">
<mask id="mask0_138_192" style="mask-type:alpha" maskUnits="userSpaceOnUse" x="0" y="0" width="514" height="514">
<path d="M513 257C513 115.615 398.385 1 257 1C115.615 1 1 115.615 1 257C1 398.385 115.615 513 257 513C398.385 513 513 398.385 513 257Z" fill="#000F1E" stroke="black"/>
</mask>
<g mask="url(#mask0_138_192)">
<path d="M513 257C513 115.615 398.385 1 257 1C115.615 1 1 115.615 1 257C1 398.385 115.615 513 257 513C398.385 513 513 398.385 513 257Z" fill="#000F1E" stroke="black"/>
<path d="M96.5027 427C117.503 426 163.503 453.5 165.503 513C165.506 513.095 172.017 513.172 172.003 513C168.003 464 190.503 427 245.503 433C213.503 420.5 184.003 436 172.503 450.5C181.503 309 256.503 217.5 256.503 217.5L251.503 213.5C251.503 213.5 169.003 321 165.003 462C162.503 460.5 140.003 419.5 96.5027 427Z" fill="#F3C432"/>
<path d="M260.003 361.5C233.503 428 180.003 426 172.503 425.5C174.965 384.5 215.503 345 260.003 361.5Z" fill="#FFD83B"/>
<path d="M122.503 315.5C157.503 329 174.572 367.632 172.003 425C129.003 422 105.003 367.5 122.503 315.5Z" fill="#FFD83B"/>
<path d="M160.003 230C191.003 248.5 203.503 297.5 188.503 345.5C142.003 335 137.003 265 160.003 230Z" fill="#FFD83B"/>
<path d="M287.003 299C264.503 338.5 223.003 356 189.003 346C204.503 297 253.003 279 287.003 299Z" fill="#FFD83B"/>
<path d="M212.003 151C186.003 180 172.503 246 219.503 270.5C242.503 223 241.003 179 212.003 151Z" fill="#FFD83B"/>
<path d="M324.503 241.5C298.503 273.5 255.503 288 220.003 271C243.503 227 294.003 215 324.503 241.5Z" fill="#FFD83B"/>
<path d="M334 129.5C291.5 129.5 244 174.5 248.5 223C297 206 323 171 334 129.5Z" fill="#FFD83B"/>
<path d="M263 456.385C276.781 455.727 306.969 473.809 308.281 512.933C308.283 512.995 312.556 513.046 312.547 512.933C309.922 480.714 324.688 456.385 360.781 460.33C339.781 452.111 320.422 462.302 312.875 471.837C318.781 378.795 368 318.63 368 318.63L364.719 316C364.719 316 310.578 386.685 307.953 479.398C306.313 478.412 291.547 451.453 263 456.385Z" fill="#F3C432"/>
<path d="M370.295 412.989C352.853 456.555 317.64 455.245 312.704 454.917C314.324 428.057 341.006 402.18 370.295 412.989Z" fill="#FFD83B"/>
<path d="M279.795 382.853C302.831 391.698 314.066 417.006 312.375 454.59C284.073 452.624 268.277 416.92 279.795 382.853Z" fill="#FFD83B"/>
<path d="M304.477 326.84C324.88 338.96 333.108 371.061 323.235 402.507C292.63 395.628 289.339 349.77 304.477 326.84Z" fill="#FFD83B"/>
<path d="M388.066 372.044C373.257 397.921 345.942 409.386 323.564 402.835C333.766 370.734 365.687 358.941 388.066 372.044Z" fill="#FFD83B"/>
<path d="M338.702 275.085C321.589 294.084 312.704 337.322 343.638 353.373C358.777 322.254 357.789 293.429 338.702 275.085Z" fill="#FFD83B"/>
<path d="M412.747 334.374C395.635 355.338 367.333 364.837 343.968 353.7C359.435 324.875 392.673 317.013 412.747 334.374Z" fill="#FFD83B"/>
<path d="M419 261C391.027 261 359.764 290.481 362.726 322.254C394.647 311.117 411.76 288.188 419 261Z" fill="#FFD83B"/>
<path d="M417 109C407 104 402 99 397 89C392 99 387 104 377 109C387 114 392 119 397 129C397 129 407 114 417 109Z" fill="white"/>
</g>
</svg>
