<svg width="715" height="544" viewBox="0 0 715 544" fill="none" xmlns="http://www.w3.org/2000/svg">
<g clip-path="url(#clip0_138_167)">
<mask id="mask0_138_167" style="mask-type:alpha" maskUnits="userSpaceOnUse" x="101" y="0" width="514" height="514">
<path d="M614 257C614 115.615 499.385 1 358 1C216.615 1 102 115.615 102 257C102 398.385 216.615 513 358 513C499.385 513 614 398.385 614 257Z" fill="#000F1E" stroke="black"/>
</mask>
<g mask="url(#mask0_138_167)">
<path d="M614 257C614 115.615 499.385 1 358 1C216.615 1 102 115.615 102 257C102 398.385 216.615 513 358 513C499.385 513 614 398.385 614 257Z" fill="#000F1E" stroke="black"/>
<path d="M197.503 427C218.503 426 264.503 453.5 266.503 513C266.506 513.095 273.017 513.172 273.003 513C269.003 464 291.503 427 346.503 433C314.503 420.5 285.003 436 273.503 450.5C282.503 309 357.503 217.5 357.503 217.5L352.503 213.5C352.503 213.5 270.003 321 266.003 462C263.503 460.5 241.003 419.5 197.503 427Z" fill="#F3C432"/>
<path d="M361.003 361.5C334.503 428 281.003 426 273.503 425.5C275.965 384.5 316.503 345 361.003 361.5Z" fill="#FFD83B"/>
<path d="M223.503 315.5C258.503 329 275.572 367.632 273.003 425C230.003 422 206.003 367.5 223.503 315.5Z" fill="#FFD83B"/>
<path d="M261.003 230C292.003 248.5 304.503 297.5 289.503 345.5C243.003 335 238.003 265 261.003 230Z" fill="#FFD83B"/>
<path d="M388.003 299C365.503 338.5 324.003 356 290.003 346C305.503 297 354.003 279 388.003 299Z" fill="#FFD83B"/>
<path d="M313.003 151C287.003 180 273.503 246 320.503 270.5C343.503 223 342.003 179 313.003 151Z" fill="#FFD83B"/>
<path d="M425.503 241.5C399.503 273.5 356.503 288 321.003 271C344.503 227 395.003 215 425.503 241.5Z" fill="#FFD83B"/>
<path d="M435 129.5C392.5 129.5 345 174.5 349.5 223C398 206 424 171 435 129.5Z" fill="#FFD83B"/>
<path d="M364 456.385C377.781 455.727 407.969 473.809 409.281 512.933C409.283 512.995 413.556 513.046 413.547 512.933C410.922 480.714 425.688 456.385 461.781 460.33C440.781 452.111 421.422 462.302 413.875 471.837C419.781 378.795 469 318.63 469 318.63L465.719 316C465.719 316 411.578 386.685 408.953 479.398C407.313 478.412 392.547 451.453 364 456.385Z" fill="#F3C432"/>
<path d="M471.295 412.989C453.853 456.555 418.64 455.245 413.704 454.917C415.324 428.057 442.006 402.18 471.295 412.989Z" fill="#FFD83B"/>
<path d="M380.795 382.853C403.831 391.698 415.066 417.006 413.375 454.59C385.073 452.624 369.277 416.92 380.795 382.853Z" fill="#FFD83B"/>
<path d="M405.477 326.84C425.88 338.96 434.108 371.061 424.235 402.507C393.63 395.628 390.339 349.77 405.477 326.84Z" fill="#FFD83B"/>
<path d="M489.066 372.044C474.257 397.921 446.942 409.386 424.564 402.835C434.766 370.734 466.687 358.941 489.066 372.044Z" fill="#FFD83B"/>
<path d="M439.702 275.085C422.589 294.084 413.704 337.322 444.638 353.373C459.777 322.254 458.789 293.429 439.702 275.085Z" fill="#FFD83B"/>
<path d="M513.747 334.374C496.635 355.338 468.333 364.837 444.968 353.7C460.435 324.875 493.673 317.013 513.747 334.374Z" fill="#FFD83B"/>
<path d="M520 261C492.027 261 460.764 290.481 463.726 322.254C495.647 311.117 512.76 288.188 520 261Z" fill="#FFD83B"/>
<path d="M518 109C508 104 503 99 498 89C493 99 488 104 478 109C488 114 493 119 498 129C498 129 508 114 518 109Z" fill="white"/>
</g>
<g filter="url(#filter0_d_138_167)">
<path d="M203 313C200.667 318.333 198.583 323 196.75 327C194.917 331 193.333 334.417 192 337.25C190.5 340.417 189.25 343.25 188.25 345.75C187.417 347.583 186.333 350.083 185 353.25C183.667 356.083 182 359.833 180 364.5C178.167 369 175.75 374.833 172.75 382C171.25 375.833 169.417 370.417 167.25 365.75C165.083 361.083 162.75 357 160.25 353.5C157.75 350 155.083 347.167 152.25 345C149.583 342.667 146.917 340.75 144.25 339.25C138.083 335.917 131.583 334.083 124.75 333.75C115.75 334.25 108.667 335.75 103.5 338.25C98.5 340.583 94.8333 343.333 92.5 346.5C90.1667 349.5 88.9167 352.667 88.75 356C88.5833 359.167 89 361.833 90 364C90.8333 366 93.75 368.333 98.75 371C103.917 373.667 110.083 376.75 117.25 380.25C124.583 383.583 132.417 387.417 140.75 391.75C149.083 395.917 156.75 400.583 163.75 405.75C170.917 410.75 176.917 416.25 181.75 422.25C186.75 428.083 189.5 434.333 190 441C190.5 449.5 190.417 457.167 189.75 464C189.083 470.833 186.75 476.667 182.75 481.5C178.75 486.333 172.5 490.167 164 493C155.667 495.833 144.083 497.583 129.25 498.25C113.917 498.917 101.333 498.083 91.5 495.75C81.6667 493.417 73.6667 490.25 67.5 486.25C61.5 482.25 57 477.833 54 473C51.1667 468.167 49.0833 463.583 47.75 459.25C46.4167 454.75 45.5 450.917 45 447.75C44.5 444.417 43.6667 442.417 42.5 441.75C41.1667 440.917 39.8333 440.167 38.5 439.5C37.3333 438.833 36.0833 438.25 34.75 437.75C33.4167 437.083 32.0833 436.5 30.75 436L103.5 424.25C99.3333 427.583 96.0833 430.667 93.75 433.5C91.5833 436.333 89.9167 438.833 88.75 441C87.4167 443.5 86.5 445.833 86 448C85.6667 450.333 86.4167 453.25 88.25 456.75C90.0833 460.25 92.5833 463.667 95.75 467C99.0833 470.167 102.917 472.833 107.25 475C111.583 477.167 116.083 478.083 120.75 477.75C126.583 477.25 131.333 475.833 135 473.5C138.667 471 141.417 467.917 143.25 464.25C145.25 460.583 146.417 456.583 146.75 452.25C147.083 447.917 146.667 443.667 145.5 439.5C144.5 435.167 142.833 431.167 140.5 427.5C138.167 423.667 135.417 420.5 132.25 418C129.417 416 125 414.083 119 412.25C113.167 410.417 106.583 408.417 99.25 406.25C92.0833 404.083 84.6667 401.583 77 398.75C69.5 395.917 62.6667 392.417 56.5 388.25C50.5 384.083 45.6667 379.167 42 373.5C38.5 367.833 37.1667 361 38 353C38.6667 346.167 40.8333 340.5 44.5 336C48.3333 331.333 53.0833 327.667 58.75 325C64.5833 322.167 71 320.083 78 318.75C85.1667 317.417 92.4167 316.667 99.75 316.5C107.25 316.167 114.583 316.25 121.75 316.75C129.083 317.25 135.667 317.833 141.5 318.5C147.333 319.167 152.25 319.833 156.25 320.5C160.417 321 163 321.333 164 321.5C168.333 321.833 172.667 321.75 177 321.25C180.833 320.917 185 320.167 189.5 319C194.167 317.667 198.667 315.667 203 313ZM195.5 379.5C200.833 378.667 205.167 378 208.5 377.5C212 376.833 214.833 376.333 217 376C219.5 375.5 221.417 375.083 222.75 374.75C224.083 374.417 226 373.917 228.5 373.25C230.667 372.583 233.5 371.833 237 371C240.5 370 244.917 368.667 250.25 367C248.917 368.667 247.833 370.167 247 371.5C246.333 372.667 245.667 373.667 245 374.5C244.333 375.5 243.75 376.417 243.25 377.25C242.75 378.083 242.25 379.333 241.75 381C241.417 382.333 241 384.25 240.5 386.75C240 389.083 239.583 392.167 239.25 396C248.25 390.333 256.5 386.083 264 383.25C271.667 380.417 278.333 378.417 284 377.25C290.667 375.917 296.667 375.417 302 375.75C308.667 376.25 314.833 377.75 320.5 380.25C326.333 382.583 331.583 385.417 336.25 388.75C340.917 392.083 345 395.75 348.5 399.75C352 403.75 354.75 407.75 356.75 411.75C358.083 414.417 358.917 418.25 359.25 423.25C359.75 428.25 359.25 433.583 357.75 439.25C356.25 444.917 353.583 450.5 349.75 456C346.083 461.333 340.833 465.583 334 468.75C322.167 474.083 310.417 477.083 298.75 477.75C293.75 478.083 288.583 477.917 283.25 477.25C278.083 476.583 272.833 475.167 267.5 473C262.333 470.833 257.333 467.75 252.5 463.75C247.667 459.583 243.25 454.25 239.25 447.75C237.917 456.25 236.917 463.667 236.25 470C235.75 476.167 235.417 481.333 235.25 485.5C235.083 490.333 235.083 494.417 235.25 497.75C235.583 501.083 236.25 504.667 237.25 508.5C238.083 511.833 239.25 515.667 240.75 520C242.417 524.5 244.5 529.167 247 534C246 533.667 244.583 533.417 242.75 533.25C241.083 533.25 239.333 533.417 237.5 533.75C235.5 534.083 233.25 534.417 230.75 534.75C228.417 535.25 225.833 535.833 223 536.5C220.667 537 217.917 537.583 214.75 538.25C211.75 539.083 208.667 540 205.5 541C207.333 538.833 208.75 536.333 209.75 533.5C210.917 530.833 211.833 528.333 212.5 526C213.167 523.167 213.75 520.333 214.25 517.5C214.417 515 214.667 510.25 215 503.25C215.5 496.417 215.917 488.5 216.25 479.5C216.583 470.333 216.833 460.75 217 450.75C217.333 440.75 217.5 431.5 217.5 423C217.667 414.333 217.667 407 217.5 401C217.333 395 217 391.5 216.5 390.5C215.833 389.333 214.583 388.083 212.75 386.75C211.25 385.583 209.083 384.417 206.25 383.25C203.583 382.083 200 380.833 195.5 379.5ZM255 425C253.833 428.833 253.583 432.583 254.25 436.25C254.917 439.917 256.583 443.333 259.25 446.5C262.083 449.667 266 452.5 271 455C276.167 457.333 282.583 459.083 290.25 460.25C297.917 461.417 303.75 461.25 307.75 459.75C311.75 458.25 314.667 455.917 316.5 452.75C318.5 449.417 319.833 445.583 320.5 441.25C321.167 436.75 322 432.083 323 427.25C324 422.583 323.833 417.833 322.5 413C321.167 408 319.25 403.5 316.75 399.5C314.417 395.5 311.75 392.25 308.75 389.75C305.917 387.083 303.417 385.75 301.25 385.75C296.083 385.75 291 387.083 286 389.75C281 392.417 276.417 395.75 272.25 399.75C268.083 403.75 264.417 408.083 261.25 412.75C258.25 417.25 256.167 421.333 255 425ZM369.5 384.25L415.5 384.75C412.833 394.917 410.833 403.583 409.5 410.75C408.333 417.917 407.583 423.917 407.25 428.75C406.583 434.25 406.417 438.917 406.75 442.75C407.25 446.25 408.083 450 409.25 454C410.25 457.333 411.75 461.167 413.75 465.5C415.75 469.833 418.417 474.167 421.75 478.5C419.75 477.833 417.583 477.333 415.25 477C412.917 476.667 410.75 476.417 408.75 476.25C406.417 476.083 404.083 476.083 401.75 476.25C399.417 476.417 396.833 476.667 394 477C391.667 477.333 388.833 477.75 385.5 478.25C382.167 478.75 378.667 479.417 375 480.25C377.5 472.75 379.417 466.25 380.75 460.75C382.25 455.25 383.333 450.667 384 447C384.667 442.667 385.083 439.167 385.25 436.5C385.25 433.167 385.25 429.417 385.25 425.25C385.25 420.917 385.25 416.75 385.25 412.75C385.25 408.75 385.167 405.25 385 402.25C384.833 399.083 384.5 397.083 384 396.25L381.5 393.75C380.5 392.917 379 391.75 377 390.25C375.167 388.583 372.667 386.583 369.5 384.25ZM387.25 345.75C390.75 343.917 394.25 343.417 397.75 344.25C401.417 345.083 404.25 346.667 406.25 349C408.25 351.333 408.917 354.083 408.25 357.25C407.75 360.417 405.083 363.5 400.25 366.5C395.417 369.333 391.167 370.333 387.5 369.5C383.833 368.667 381.25 366.917 379.75 364.25C378.25 361.583 378 358.5 379 355C380 351.333 382.75 348.25 387.25 345.75ZM428.25 315.75C430.083 316.583 432.25 317.167 434.75 317.5C437.417 317.833 439.917 318 442.25 318C445.083 318 448 317.917 451 317.75C454 317.583 457.667 317.25 462 316.75C465.5 316.417 469.833 316 475 315.5C480.167 315 485.917 314.333 492.25 313.5C489.917 314.667 487.917 315.917 486.25 317.25C484.583 318.583 483.167 319.917 482 321.25C480.667 322.75 479.583 324.25 478.75 325.75C477.583 327.75 476 331.25 474 336.25C472.167 341.083 470.25 346.5 468.25 352.5C466.417 358.5 464.75 364.583 463.25 370.75C461.917 376.917 461.167 382.167 461 386.5C460.833 390.167 460.667 394.333 460.5 399C460.333 403 460.167 407.917 460 413.75C459.833 419.583 459.667 426.25 459.5 433.75C471.5 425.083 480.75 418.167 487.25 413C493.75 407.667 498.5 403.583 501.5 400.75C505 397.583 507.083 395.333 507.75 394C507.583 393 507.167 391.917 506.5 390.75C505.667 389.75 504.5 388.583 503 387.25C501.5 385.917 499.25 384.417 496.25 382.75C500.583 383.25 504.333 383.583 507.5 383.75C510.833 383.917 513.667 384.083 516 384.25C518.667 384.417 521 384.417 523 384.25C525.167 384.25 527.833 384.167 531 384C536.5 383.833 545 383.583 556.5 383.25C545.333 389.083 536.5 394.083 530 398.25C526.333 400.583 523.083 402.75 520.25 404.75C517.417 406.917 514.5 409.167 511.5 411.5C508.833 413.5 505.75 415.833 502.25 418.5C498.917 421.167 495.583 424 492.25 427C498.083 436.5 503.167 444.333 507.5 450.5C512 456.667 515.75 461.667 518.75 465.5C522.25 470 525.333 473.583 528 476.25C530.667 478.75 534.167 481.583 538.5 484.75C542.167 487.583 546.917 490.917 552.75 494.75C558.75 498.417 566 502.667 574.5 507.5C570.167 506.667 566 506.083 562 505.75C558 505.583 554.583 505.583 551.75 505.75C548.25 505.917 545.083 506.25 542.25 506.75C539.25 507.417 535.917 508.25 532.25 509.25C529.083 510.083 525.333 511.167 521 512.5C516.833 514 512.25 515.917 507.25 518.25C510.417 515.917 512.75 513.667 514.25 511.5C515.917 509.5 517.083 507.833 517.75 506.5C518.417 504.833 518.667 503.417 518.5 502.25C517.667 500.583 515.75 497.167 512.75 492C509.917 487.667 505.75 481.333 500.25 473C494.75 464.667 486.917 453.333 476.75 439C476.25 439.167 475.417 439.667 474.25 440.5C473.25 441.333 471.75 442.5 469.75 444C467.75 445.333 465.083 447.333 461.75 450L468.5 493.75C467 494.417 465.333 495 463.5 495.5C461.833 496 460.25 496.417 458.75 496.75C456.917 497.25 455.083 497.583 453.25 497.75C451.417 497.917 449.25 498.25 446.75 498.75C444.583 499.083 442 499.5 439 500C436 500.667 432.583 501.417 428.75 502.25C430.917 500.75 432.667 499 434 497C435.333 495.167 436.417 493.417 437.25 491.75C438.083 489.917 438.833 488 439.5 486C439.833 484.333 440.167 480 440.5 473C441 466 441.417 457.667 441.75 448C442.083 438.167 442.333 427.667 442.5 416.5C442.833 405.333 443 394.833 443 385C443 375 442.917 366.333 442.75 359C442.583 351.5 442.25 346.667 441.75 344.5C440.917 341.833 439.917 339 438.75 336C437.75 333.333 436.333 330.333 434.5 327C432.833 323.5 430.75 319.75 428.25 315.75ZM563.75 394.75C564.583 393.75 565.083 391.917 565.25 389.25C565.583 386.417 566.25 383.25 567.25 379.75C568.417 376.25 570.333 372.583 573 368.75C575.667 364.917 580 361.333 586 358C591.833 354.667 597.5 352.667 603 352C608.5 351.333 613.75 351.583 618.75 352.75C623.75 353.917 628.417 355.75 632.75 358.25C637.25 360.75 641.333 363.5 645 366.5C647.5 368.5 649.5 371.417 651 375.25C652.5 378.917 653.667 383.083 654.5 387.75C655.333 392.417 655.917 397.333 656.25 402.5C656.75 407.5 657.083 412.417 657.25 417.25C657.417 421.917 657.5 426.25 657.5 430.25C657.667 434.083 658 437.25 658.5 439.75C659.167 443.417 660.333 446.583 662 449.25C663.667 451.75 665.5 453.917 667.5 455.75C669.5 457.417 671.5 458.75 673.5 459.75C675.5 460.75 677.25 461.5 678.75 462C679.75 462.5 680.667 462.833 681.5 463C683.167 463.667 684.333 463.667 685 463C684 465.333 683.083 467.333 682.25 469C681.417 470.667 680.75 472.083 680.25 473.25C679.583 474.583 679 475.667 678.5 476.5C678 477.5 677.417 478.417 676.75 479.25C676.25 480.083 675.583 481 674.75 482C673.917 483 673.083 484.083 672.25 485.25C670.083 484.417 668 483.417 666 482.25C664.167 481.083 662.5 480 661 479C659.167 477.833 657.5 476.667 656 475.5C654.5 474.333 653.083 473 651.75 471.5C650.583 470.167 649.333 468.75 648 467.25C646.833 465.75 645.833 464.083 645 462.25C644 464.417 641.583 467.5 637.75 471.5C634.083 475.5 629.25 479.167 623.25 482.5C617.25 485.667 610.25 487.917 602.25 489.25C594.417 490.583 585.75 489.667 576.25 486.5C572.083 485.167 568.167 483.25 564.5 480.75C560.833 478.083 557.667 474.917 555 471.25C552.5 467.583 550.667 463.417 549.5 458.75C548.5 453.917 548.583 448.583 549.75 442.75C550.917 436.917 553 432 556 428C559 424 562.583 420.75 566.75 418.25C570.917 415.75 575.583 413.833 580.75 412.5C585.917 411.167 591.25 410.25 596.75 409.75C601.083 409.583 605.417 409.833 609.75 410.5C613.417 411.167 617.25 412.417 621.25 414.25C625.25 415.917 628.667 418.5 631.5 422C631.333 413.167 631 406.167 630.5 401C630.167 395.667 629.833 391.583 629.5 388.75C628.833 385.417 628.25 383.083 627.75 381.75C626.917 380.583 626 379.25 625 377.75C624.167 376.25 623.083 374.917 621.75 373.75C620.417 372.417 618.75 371.333 616.75 370.5C614.75 369.667 612.417 369.333 609.75 369.5C606.917 369.667 604.667 370.417 603 371.75C601.333 373.083 600 374.667 599 376.5C598.167 378.167 597.667 380 597.5 382C597.333 384 597.417 385.75 597.75 387.25C598.083 388.25 598.583 389.333 599.25 390.5C599.917 391.5 600.833 392.583 602 393.75C603.167 394.917 604.75 395.917 606.75 396.75C602.917 397.25 599.5 397.667 596.5 398C593.5 398.167 590.917 398.417 588.75 398.75C586.25 399.083 584.083 399.333 582.25 399.5C580.417 399.667 578.25 400 575.75 400.5C573.583 400.833 570.917 401.25 567.75 401.75C564.583 402.25 560.917 402.917 556.75 403.75C557.75 402.583 558.667 401.5 559.5 400.5C560.333 399.333 561.083 398.333 561.75 397.5C562.417 396.5 563.083 395.583 563.75 394.75ZM601.25 424.5C598.25 424.667 595.25 425.417 592.25 426.75C589.25 427.917 586.583 429.667 584.25 432C581.917 434.167 579.917 436.75 578.25 439.75C576.75 442.583 576 445.75 576 449.25C576 452.75 576.833 455.833 578.5 458.5C580.333 461 582.667 463.083 585.5 464.75C588.5 466.417 591.667 467.417 595 467.75C598.5 468.083 601.917 467.75 605.25 466.75C608.417 465.583 611.417 463.75 614.25 461.25C617.083 458.583 619.5 455.75 621.5 452.75C623.5 449.583 624.917 446.5 625.75 443.5C626.583 440.333 626.667 437.75 626 435.75C624.667 431.417 621.667 428.417 617 426.75C612.333 424.917 607.083 424.167 601.25 424.5Z" fill="#FF9900"/>
</g>
</g>
<defs>
<filter id="filter0_d_138_167" x="0.75" y="283" width="714.25" height="288" filterUnits="userSpaceOnUse" color-interpolation-filters="sRGB">
<feFlood flood-opacity="0" result="BackgroundImageFix"/>
<feColorMatrix in="SourceAlpha" type="matrix" values="0 0 0 0 0 0 0 0 0 0 0 0 0 0 0 0 0 0 127 0" result="hardAlpha"/>
<feOffset/>
<feGaussianBlur stdDeviation="15"/>
<feComposite in2="hardAlpha" operator="out"/>
<feColorMatrix type="matrix" values="0 0 0 0 1 0 0 0 0 0.6 0 0 0 0 0 0 0 0 0.5 0"/>
<feBlend mode="normal" in2="BackgroundImageFix" result="effect1_dropShadow_138_167"/>
<feBlend mode="normal" in="SourceGraphic" in2="effect1_dropShadow_138_167" result="shape"/>
</filter>
<clipPath id="clip0_138_167">
<rect width="715" height="544" fill="white"/>
</clipPath>
</defs>
</svg>
