<svg width="22" height="17" viewBox="0 0 22 17" fill="none" xmlns="http://www.w3.org/2000/svg">
<path d="M19.3363 0H2.00031C0.895556 0 0 0.895556 0 2.00031V14.0022C0 15.1069 0.895556 16.0025 2.00031 16.0025H19.3363C20.4411 16.0025 21.3367 15.1069 21.3367 14.0022V2.00031C21.3367 0.895556 20.4411 0 19.3363 0ZM19.0863 14.0022H2.25035C2.18404 14.0022 2.12044 13.9758 2.07355 13.9289C2.02665 13.8821 2.00031 13.8185 2.00031 13.7521V2.25035C2.00031 2.18404 2.02665 2.12044 2.07355 2.07355C2.12044 2.02665 2.18404 2.00031 2.25035 2.00031H19.0863C19.1526 2.00031 19.2162 2.02665 19.2631 2.07355C19.31 2.12044 19.3363 2.18404 19.3363 2.25035V13.7521C19.3363 13.8185 19.31 13.8821 19.2631 13.9289C19.2162 13.9758 19.1526 14.0022 19.0863 14.0022Z" fill="black"/>
<path d="M15.2857 6.92857H12.0714V3.71429C12.0714 3.31987 11.7516 3 11.3571 3H10.6429C10.2484 3 9.92857 3.31987 9.92857 3.71429V6.92857H6.71429C6.31987 6.92857 6 7.24844 6 7.64286V8.35714C6 8.75156 6.31987 9.07143 6.71429 9.07143H9.92857V12.2857C9.92857 12.6801 10.2484 13 10.6429 13H11.3571C11.7516 13 12.0714 12.6801 12.0714 12.2857V9.07143H15.2857C15.6801 9.07143 16 8.75156 16 8.35714V7.64286C16 7.24844 15.6801 6.92857 15.2857 6.92857Z" fill="black"/>
</svg>
