<svg width="32" height="32" viewBox="0 0 32 32" fill="none" xmlns="http://www.w3.org/2000/svg">
<path d="M27.7143 4.57139H25.7143V1.99997C25.7143 1.52497 25.3322 1.14282 24.8572 1.14282H3.71432C3.23932 1.14282 2.85718 1.52497 2.85718 1.99997V11.7143C2.85718 12.1893 3.23932 12.5714 3.71432 12.5714H24.8572C25.3322 12.5714 25.7143 12.1893 25.7143 11.7143V6.85711H26.8572V14H14.3215C13.5322 14 12.8929 14.6393 12.8929 15.4285V20.2857H11.3215C11.1643 20.2857 11.0357 20.4143 11.0357 20.5714V28.7143C11.0357 28.7535 11.0429 28.7928 11.0572 28.825C11.0429 28.8821 11.0357 28.9393 11.0357 29C11.0357 30.6571 12.3786 32 14.0357 32C15.6929 32 17.0357 30.6571 17.0357 29C17.0357 28.9393 17.0286 28.8821 17.0143 28.825C17.0286 28.7893 17.0357 28.7535 17.0357 28.7143V20.5714C17.0357 20.4143 16.9072 20.2857 16.75 20.2857H15.1786V16.2857H27.7143C28.5036 16.2857 29.1429 15.6464 29.1429 14.8571V5.99997C29.1429 5.21068 28.5036 4.57139 27.7143 4.57139Z" fill="black"/>
</svg>
