<svg width="16" height="16" viewBox="0 0 16 16" fill="none" xmlns="http://www.w3.org/2000/svg">
<path d="M9.21739 7.08132H15.5411C15.7503 7.08132 15.9199 6.91172 15.9199 6.70253V0.378793C15.9199 0.169605 15.7503 0 15.5411 0H14.026C13.8168 0 13.6472 0.169605 13.6472 0.378793V2.84449C12.2023 1.23989 10.1035 0.235799 7.77034 0.25275C3.44875 0.284127 -0.00906679 3.77625 0.000118954 8.09794C0.00930469 12.4136 3.51065 15.9093 7.82848 15.9093C9.85152 15.9093 11.6952 15.1419 13.0846 13.8823C13.2455 13.7364 13.2529 13.486 13.0993 13.3324L12.0271 12.2602C11.8859 12.119 11.659 12.1113 11.5094 12.2436C10.5297 13.1105 9.24116 13.6366 7.82848 13.6366C4.75811 13.6366 2.27285 11.1518 2.27285 8.08092C2.27285 5.01058 4.75761 2.52529 7.82848 2.52529C9.67498 2.52529 11.3096 3.42417 12.3195 4.80856H9.21739C9.00821 4.80856 8.8386 4.97817 8.8386 5.18735V6.70253C8.8386 6.91172 9.00821 7.08132 9.21739 7.08132V7.08132Z" fill="black"/>
</svg>
