<svg width="19" height="24" viewBox="0 0 19 24" fill="none" xmlns="http://www.w3.org/2000/svg">
<path d="M10.9289 6.88066V0.848145H2.0576C1.46766 0.848145 0.993042 1.32276 0.993042 1.91271V22.4942C0.993042 23.0842 1.46766 23.5588 2.0576 23.5588H16.9615C17.5514 23.5588 18.026 23.0842 18.026 22.4942V7.94522H11.9935C11.408 7.94522 10.9289 7.46617 10.9289 6.88066ZM14.32 16.2559L10.0431 20.5008C9.74817 20.794 9.27178 20.794 8.97681 20.5008L4.69993 16.2559C4.24971 15.8092 4.56553 15.0423 5.19895 15.0423H8.09012V11.4938C8.09012 11.1016 8.40771 10.7841 8.79983 10.7841H10.2192C10.6114 10.7841 10.9289 11.1016 10.9289 11.4938V15.0423H13.8201C14.4535 15.0423 14.7694 15.8092 14.32 16.2559ZM17.7155 5.5056L13.373 1.15864C13.1734 0.959036 12.9028 0.848145 12.6189 0.848145H12.3484V6.52581H18.026V6.25523C18.026 5.97578 17.9151 5.70521 17.7155 5.5056Z" fill="black"/>
</svg>
