<svg width="51" height="70" viewBox="0 0 51 70" fill="none" xmlns="http://www.w3.org/2000/svg">
<path d="M47.89 0.190186H3.33617C2.67971 0.190186 2.05013 0.450966 1.58593 0.915158C1.12174 1.37935 0.860962 2.00893 0.860962 2.6654L0.860962 17.5167C0.860962 18.1731 1.12174 18.8027 1.58593 19.2669C2.05013 19.7311 2.67971 19.9919 3.33617 19.9919H8.2866C8.94306 19.9919 9.57264 19.7311 10.0368 19.2669C10.501 18.8027 10.7618 18.1731 10.7618 17.5167V12.5662H19.425V59.5953H13.237C12.5806 59.5953 11.951 59.856 11.4868 60.3202C11.0226 60.7844 10.7618 61.414 10.7618 62.0705V67.0209C10.7618 67.6774 11.0226 68.3069 11.4868 68.7711C11.951 69.2353 12.5806 69.4961 13.237 69.4961H37.9891C38.6456 69.4961 39.2752 69.2353 39.7394 68.7711C40.2036 68.3069 40.4643 67.6774 40.4643 67.0209V62.0705C40.4643 61.414 40.2036 60.7844 39.7394 60.3202C39.2752 59.856 38.6456 59.5953 37.9891 59.5953H31.8011V12.5662H40.4643V17.5167C40.4643 18.1731 40.7251 18.8027 41.1893 19.2669C41.6535 19.7311 42.2831 19.9919 42.9396 19.9919H47.89C48.5464 19.9919 49.176 19.7311 49.6402 19.2669C50.1044 18.8027 50.3652 18.1731 50.3652 17.5167V2.6654C50.3652 2.00893 50.1044 1.37935 49.6402 0.915158C49.176 0.450966 48.5464 0.190186 47.89 0.190186Z" fill="black"/>
</svg>
